<?xml version="1.0" standalone="no"?>
<!DOCTYPE svg PUBLIC "-//W3C//DTD SVG 20010904//EN"
 "http://www.w3.org/TR/2001/REC-SVG-20010904/DTD/svg10.dtd">
<svg version="1.0" xmlns="http://www.w3.org/2000/svg"
 width="1440.000000pt" height="901.000000pt" viewBox="0 0 1440.000000 901.000000"
 preserveAspectRatio="xMidYMid meet">

<g transform="translate(0.000000,901.000000) scale(0.100000,-0.100000)"
fill="#000000" stroke="none">
<path d="M1490 8290 l0 -153 73 5 c120 8 167 48 167 143 0 105 -43 146 -162
153 l-78 5 0 -153z m155 75 c20 -19 25 -34 25 -75 0 -67 -30 -100 -90 -100
l-40 0 0 100 0 100 40 0 c30 0 47 -7 65 -25z"/>
<path d="M1845 8423 c-21 -53 -95 -267 -95 -274 0 -5 11 -9 24 -9 19 0 27 8
36 35 11 35 12 35 71 35 59 0 60 -1 75 -35 11 -27 20 -35 39 -35 14 0 25 4 25
8 0 5 -22 71 -49 148 l-49 139 -35 3 c-26 2 -36 -1 -42 -15z m63 -103 l21 -60
-45 0 c-24 0 -44 3 -44 7 0 17 35 113 41 113 4 0 16 -27 27 -60z"/>
<path d="M2070 8290 l0 -150 25 0 c23 0 24 3 27 78 l3 77 50 -75 c48 -72 76
-93 97 -72 7 7 -7 34 -41 82 l-50 72 49 62 c51 65 53 76 15 76 -16 0 -34 -19
-66 -65 -24 -35 -47 -65 -51 -65 -5 0 -8 29 -8 65 0 63 -1 65 -25 65 l-25 0 0
-150z"/>
<path d="M1290 8368 c-52 -27 -74 -115 -46 -182 17 -42 67 -61 132 -51 37 5
44 10 44 29 0 21 -3 22 -54 18 -47 -4 -55 -2 -70 19 -9 13 -16 27 -16 31 0 4
33 8 73 10 l72 3 -1 43 c-1 29 -7 50 -21 63 -25 25 -81 33 -113 17z m84 -60
c15 -24 5 -30 -48 -26 -46 3 -47 3 -30 26 19 27 61 27 78 0z"/>
<path d="M3022 7918 c-7 -7 -12 -20 -12 -29 0 -10 -6 -20 -12 -23 -10 -5 -10
-7 0 -12 7 -4 12 -27 12 -65 0 -33 4 -59 10 -59 6 0 10 27 10 60 0 53 2 60 20
60 11 0 20 5 20 10 0 6 -9 10 -20 10 -12 0 -20 7 -20 16 0 9 9 18 20 21 11 3
20 9 20 14 0 13 -34 11 -48 -3z"/>
<path d="M1285 7908 c-11 -6 -26 -18 -32 -26 -18 -22 -16 -93 2 -119 19 -27
70 -38 108 -24 25 10 28 15 25 48 -3 35 -6 38 -35 41 -19 2 -33 -1 -33 -7 0
-6 9 -11 20 -11 16 0 20 -7 20 -30 0 -27 -3 -30 -30 -30 -41 0 -70 31 -70 75
0 60 57 94 111 65 13 -8 19 -7 19 0 0 12 -42 30 -68 30 -9 0 -26 -6 -37 -12z"/>
<path d="M3182 7833 c-35 -97 -36 -103 -22 -103 5 0 12 11 16 25 5 22 12 25
50 25 38 0 44 -3 50 -25 3 -14 12 -25 20 -25 18 0 -48 184 -68 188 -11 2 -24
-24 -46 -85z m61 12 l16 -45 -34 0 -34 0 16 45 c8 25 16 45 18 45 2 0 10 -20
18 -45z"/>
<path d="M2680 7891 c0 -11 -6 -22 -12 -25 -10 -5 -10 -7 0 -12 6 -3 12 -21
12 -39 0 -50 16 -85 40 -85 11 0 20 5 20 10 0 6 -7 10 -15 10 -11 0 -15 12
-15 50 0 38 4 50 15 50 8 0 15 5 15 10 0 6 -7 10 -15 10 -8 0 -15 9 -15 20 0
11 -7 20 -15 20 -8 0 -15 -9 -15 -19z"/>
<path d="M1452 7854 c-16 -11 -22 -25 -22 -54 0 -63 47 -90 98 -54 16 11 22
25 22 54 0 40 -26 70 -60 70 -9 0 -26 -7 -38 -16z m66 -16 c7 -7 12 -24 12
-38 0 -14 -5 -31 -12 -38 -17 -17 -55 -15 -62 4 -16 42 1 84 34 84 9 0 21 -5
28 -12z"/>
<path d="M1574 7853 c22 -69 46 -118 58 -121 9 -2 22 19 36 60 24 69 26 78 14
78 -5 0 -17 -26 -27 -57 l-18 -58 -15 35 c-8 19 -18 45 -23 58 -10 26 -33 30
-25 5z"/>
<path d="M1742 7854 c-16 -11 -22 -25 -22 -52 0 -20 4 -42 8 -48 11 -17 47
-26 76 -18 36 9 33 22 -4 16 -32 -5 -60 11 -60 34 0 10 13 14 45 14 41 0 45 2
45 25 0 41 -48 57 -88 29z m66 -21 c2 -9 -8 -13 -32 -13 -34 0 -44 8 -29 24
11 11 56 2 61 -11z"/>
<path d="M1870 7800 c0 -40 4 -70 10 -70 6 0 10 19 10 43 1 46 18 77 44 77 9
0 16 5 16 10 0 13 -16 13 -41 0 -13 -7 -19 -7 -19 0 0 5 -4 10 -10 10 -6 0
-10 -30 -10 -70z"/>
<path d="M1980 7800 c0 -40 4 -70 10 -70 6 0 10 22 10 48 0 50 12 72 41 72 21
0 29 -20 29 -76 0 -24 5 -44 10 -44 17 0 12 107 -6 124 -18 19 -28 20 -55 6
-13 -7 -19 -7 -19 0 0 5 -4 10 -10 10 -6 0 -10 -30 -10 -70z"/>
<path d="M2130 7800 c0 -40 4 -70 10 -70 6 0 10 20 10 44 0 48 21 79 49 74 12
-2 17 -17 19 -61 4 -71 20 -75 24 -6 6 96 68 89 68 -8 0 -24 5 -43 10 -43 11
0 13 71 4 107 -7 27 -36 38 -63 23 -15 -8 -26 -7 -40 2 -15 9 -25 9 -45 0 -16
-7 -26 -8 -26 -2 0 6 -4 10 -10 10 -6 0 -10 -30 -10 -70z"/>
<path d="M2392 7854 c-16 -11 -22 -25 -22 -52 0 -20 4 -42 8 -48 11 -17 47
-26 76 -18 36 9 33 22 -4 16 -32 -5 -60 11 -60 34 0 10 13 14 45 14 41 0 45 2
45 25 0 41 -48 57 -88 29z m66 -21 c2 -9 -8 -13 -32 -13 -34 0 -44 8 -29 24
11 11 56 2 61 -11z"/>
<path d="M2520 7800 c0 -40 4 -70 10 -70 6 0 10 20 10 44 0 48 21 79 49 74 12
-2 17 -17 19 -61 4 -75 22 -74 22 2 0 71 -16 91 -61 74 -16 -6 -29 -7 -29 -2
0 5 -4 9 -10 9 -6 0 -10 -30 -10 -70z"/>
<path d="M2862 7854 c-16 -11 -22 -25 -22 -54 0 -63 47 -90 98 -54 16 11 22
25 22 54 0 40 -26 70 -60 70 -9 0 -26 -7 -38 -16z m67 -18 c31 -37 -9 -103
-46 -80 -37 23 -24 94 17 94 10 0 23 -6 29 -14z"/>
<path d="M3346 7857 c-26 -19 -14 -50 25 -64 39 -15 33 -38 -9 -38 -35 0 -38
-18 -4 -23 30 -5 62 15 62 39 0 12 -12 25 -35 36 -40 19 -41 38 -1 38 14 -1
25 4 23 10 -5 16 -40 17 -61 2z"/>
<path d="M3462 7858 c-21 -21 -13 -47 18 -63 43 -22 40 -48 -5 -43 -41 5 -47
-9 -8 -18 58 -15 86 44 34 71 -42 21 -42 49 -1 43 32 -5 41 6 14 16 -24 9 -39
7 -52 -6z"/>
<path d="M3588 7863 c-31 -8 -20 -18 19 -18 28 0 38 -5 41 -17 2 -13 -3 -18
-18 -18 -35 0 -60 -19 -60 -45 0 -26 15 -32 73 -33 26 0 27 1 27 59 0 72 -19
89 -82 72z m62 -88 c0 -15 -46 -32 -57 -22 -3 4 -3 13 0 22 8 20 57 20 57 0z"/>
<path d="M3710 7800 c0 -40 4 -70 10 -70 6 0 10 20 10 44 0 48 21 79 49 74 12
-2 17 -17 19 -61 4 -71 20 -75 24 -6 6 96 68 89 68 -8 0 -24 5 -43 10 -43 11
0 13 71 4 107 -7 27 -36 38 -63 23 -15 -8 -26 -7 -40 2 -15 9 -25 9 -45 0 -16
-7 -26 -8 -26 -2 0 6 -4 10 -10 10 -6 0 -10 -30 -10 -70z"/>
<path d="M12070 7580 c-150 -33 -384 -82 -414 -87 -16 -3 -182 -36 -369 -74
-303 -61 -356 -77 -357 -100 0 -3 -46 -16 -102 -29 -82 -18 -120 -33 -185 -72
-46 -27 -83 -51 -83 -52 0 -2 53 11 118 30 l117 33 38 -30 38 -30 154 51 c101
34 162 49 177 45 13 -4 53 -18 89 -31 l66 -24 74 34 c41 18 110 50 154 71 44
21 107 50 140 65 244 112 445 208 445 214 0 8 1 8 -100 -14z"/>
<path d="M3433 6445 c-69 -13 -224 -77 -266 -109 -15 -11 -55 -43 -89 -71 -33
-27 -91 -73 -128 -102 -37 -28 -82 -71 -101 -95 -18 -24 -70 -83 -116 -131
-109 -117 -150 -192 -160 -294 -11 -101 2 -632 17 -703 6 -30 12 -141 14 -246
2 -105 8 -199 13 -210 6 -10 13 -37 16 -59 3 -22 8 -51 11 -65 2 -14 7 -47 11
-75 7 -51 25 -118 51 -188 8 -21 46 -91 85 -155 67 -111 70 -119 66 -167 -5
-53 6 -83 51 -143 38 -50 107 -95 231 -148 63 -27 128 -63 147 -80 18 -18 57
-40 86 -49 29 -10 79 -28 110 -41 l56 -24 54 24 c29 13 62 27 73 31 12 4 15 9
8 12 -7 2 -20 0 -31 -6 -10 -5 -42 -13 -71 -17 -78 -10 -120 8 -181 77 -31 35
-61 59 -74 60 -17 1 -17 2 -3 6 28 7 19 22 -18 29 -19 3 -35 12 -35 19 0 7
-17 15 -38 18 -36 6 -72 35 -72 58 0 7 7 8 18 4 26 -11 181 -29 189 -22 3 4 0
13 -7 22 -11 13 -9 15 10 13 13 -2 25 3 28 11 3 10 -2 12 -21 7 -14 -3 -33 -3
-42 0 -14 6 -14 9 4 25 17 16 24 17 45 8 31 -15 56 -5 56 21 0 14 7 20 23 20
20 1 19 2 -6 13 -16 7 -28 15 -28 20 3 23 -3 27 -43 27 -25 0 -51 6 -58 14 -8
7 -45 27 -82 45 -57 26 -67 35 -63 51 3 12 1 17 -5 14 -5 -3 -17 2 -27 12 -13
14 -16 26 -10 47 4 15 4 27 -2 27 -5 0 -15 16 -24 36 -15 37 -35 38 -35 3 0
-11 -7 -27 -15 -35 -20 -21 -19 -31 5 -37 20 -5 29 -37 10 -37 -5 0 -10 -11
-10 -25 0 -14 4 -25 9 -25 14 0 41 -59 31 -65 -5 -3 -7 -12 -4 -19 3 -8 1 -17
-5 -21 -6 -3 -11 0 -11 8 0 18 -37 29 -43 13 -3 -7 -11 -5 -23 6 -25 25 -13
33 54 37 10 1 10 5 0 21 -17 27 -31 25 -22 -2 6 -19 5 -20 -8 -7 -8 8 -20 24
-27 37 -6 12 -21 22 -32 22 -15 0 -19 5 -15 16 6 17 -31 73 -42 64 -4 -3 -11
5 -17 18 -5 12 -15 22 -22 22 -6 0 -15 9 -18 20 -3 11 -11 20 -16 20 -5 0 -9
10 -9 23 0 12 -7 30 -15 40 -7 11 -11 25 -9 32 3 7 -2 15 -10 18 -24 10 -54
91 -61 169 -6 70 -6 73 17 83 15 7 25 21 28 43 3 18 10 34 15 35 6 1 9 12 7
25 -2 15 2 22 14 22 13 0 15 6 9 28 -4 15 -8 62 -10 106 -3 48 -10 87 -20 102
-8 13 -15 32 -15 42 0 10 -5 23 -12 30 -8 8 -8 15 1 26 8 9 10 27 6 45 -5 23
-1 38 14 60 15 20 21 44 21 79 0 28 5 54 10 57 6 3 10 14 10 24 0 9 6 25 13
35 12 16 14 16 39 -3 36 -28 54 -18 68 37 15 60 73 100 157 107 55 5 174 -31
194 -59 4 -4 10 -3 13 3 4 6 3 11 -3 11 -7 0 -7 8 0 26 5 15 8 27 7 28 -2 0
-13 7 -25 14 -13 6 -29 12 -38 12 -8 0 -12 6 -9 13 8 21 -20 37 -88 51 -60 13
-138 11 -148 -3 -10 -13 -123 -73 -147 -77 -17 -3 -25 1 -31 18 -8 24 -8 114
1 186 5 39 -5 58 -16 30 -3 -7 -6 1 -6 18 -1 31 44 134 59 134 4 0 11 12 14
27 4 14 22 44 40 67 31 38 47 67 51 91 1 12 14 45 23 63 13 24 156 89 242 110
47 11 99 26 115 33 17 7 47 14 68 15 21 2 48 9 60 16 22 12 60 19 110 20 15 1
27 5 27 11 0 5 9 7 20 4 11 -3 22 -1 25 3 3 5 23 7 45 5 30 -3 40 0 40 11 0
19 19 18 26 -1 5 -11 10 -13 19 -5 13 11 131 -13 149 -31 6 -5 24 -9 42 -9 57
0 147 -57 308 -193 92 -78 140 -132 131 -147 -3 -4 2 -13 10 -20 8 -7 15 -20
15 -29 0 -9 8 -38 19 -66 21 -57 21 -86 -2 -166 -22 -76 -13 -335 14 -444 6
-22 10 -57 9 -77 0 -21 3 -38 7 -39 4 0 18 -2 30 -5 19 -3 23 2 29 32 4 24 13
38 25 41 11 3 19 11 19 19 0 18 47 64 65 64 18 0 22 16 35 173 15 192 13 242
-15 332 -41 127 -134 266 -202 299 -21 10 -45 22 -53 26 -8 4 -33 43 -55 86
-30 59 -61 100 -125 164 -92 92 -101 97 -265 161 -60 23 -120 49 -132 56 -46
30 -124 43 -183 32 -40 -8 -72 -8 -115 0 -32 6 -61 10 -64 10 -3 -1 -34 -7
-68 -14z m-577 -1139 c6 -13 8 -30 3 -37 -10 -18 -17 -9 -25 29 -8 38 6 42 22
8z m-74 -268 c-15 -15 -24 -6 -16 16 5 12 10 14 17 7 8 -8 8 -14 -1 -23z m-47
-28 c4 -19 13 -30 23 -30 14 0 15 -2 2 -9 -10 -7 -18 -4 -26 7 -15 23 -27 75
-15 68 5 -4 12 -20 16 -36z m10 -439 c-3 -6 -11 -11 -17 -11 -6 0 -6 6 2 15
14 17 26 13 15 -4z m-5 -35 c0 -11 -19 -15 -25 -6 -3 5 1 10 9 10 9 0 16 -2
16 -4z m0 -46 c0 -5 -4 -10 -10 -10 -5 0 -10 5 -10 10 0 6 5 10 10 10 6 0 10
-4 10 -10z m-11 -62 c0 -28 -2 -30 -9 -13 -12 28 -12 45 0 45 6 0 10 -15 9
-32z m178 -700 c-3 -8 -6 -5 -6 6 -1 11 2 17 5 13 3 -3 4 -12 1 -19z m223 -3
c16 -20 5 -32 -14 -16 -8 7 -20 10 -26 6 -5 -3 -10 1 -10 9 0 20 34 21 50 1z
m17 -51 c-3 -3 -12 -4 -19 -1 -8 3 -5 6 6 6 11 1 17 -2 13 -5z m73 -37 c11 -5
9 -6 -4 -4 -11 1 -21 9 -23 17 -3 10 -2 11 4 4 4 -6 15 -14 23 -17z"/>
<path d="M4025 5370 c-3 -5 -37 -9 -75 -8 -49 1 -73 -3 -84 -14 -8 -9 -12 -18
-9 -22 4 -3 -1 -6 -10 -6 -9 0 -17 -7 -17 -15 0 -9 6 -12 15 -9 8 4 15 2 15
-4 0 -6 -6 -12 -12 -15 -10 -4 -10 -7 0 -18 10 -11 12 -10 12 3 0 9 10 24 22
32 26 19 47 21 30 4 -19 -19 -14 -29 13 -22 85 21 194 -5 244 -60 29 -30 34
-31 66 -10 l24 16 -18 37 c-21 40 -125 116 -148 107 -7 -3 -24 -1 -38 4 -15 6
-26 6 -30 0z"/>
<path d="M3105 5243 c-11 -2 -30 -6 -43 -9 -37 -8 -103 -74 -97 -95 4 -12 1
-21 -9 -25 -19 -7 -21 -24 -4 -24 7 0 22 -12 34 -27 12 -16 26 -25 30 -21 4 4
1 14 -5 22 -17 20 -1 28 63 28 l54 1 -26 23 c-23 20 -25 25 -12 34 23 16 45 7
44 -18 0 -17 5 -22 26 -22 53 0 88 12 93 31 7 26 41 24 61 -3 9 -13 14 -17 11
-10 -4 8 6 5 27 -6 22 -13 34 -27 36 -45 3 -25 22 -39 22 -17 0 17 18 11 23
-7 3 -15 6 -13 17 9 10 21 10 31 1 41 -6 8 -9 22 -5 31 3 9 3 31 0 50 -5 28
-13 35 -46 46 -31 10 -43 11 -52 2 -9 -9 -9 -12 0 -12 7 0 12 -5 12 -11 0 -7
-7 -8 -17 -4 -43 17 -46 15 -13 -14 39 -35 37 -38 -9 -15 -47 23 -165 29 -233
11 -33 -8 -58 -11 -58 -6 0 6 28 23 63 39 58 28 61 34 12 23z m115 -83 c0 -11
-4 -20 -8 -20 -4 0 -8 9 -8 20 0 11 4 20 8 20 4 0 8 -9 8 -20z m186 -47 c-4
-4 -11 -1 -16 7 -16 25 -11 35 7 17 9 -9 13 -20 9 -24z"/>
<path d="M3830 5220 c-8 -5 -25 -10 -38 -10 -13 0 -21 -4 -17 -9 3 -5 1 -12
-5 -16 -10 -6 -40 -70 -40 -85 0 -4 11 -5 25 -2 15 2 25 0 25 -8 0 -6 7 -19
16 -28 15 -15 16 -14 10 6 -6 18 -3 22 13 22 12 0 21 -4 21 -9 0 -5 8 -8 18
-6 9 2 19 4 22 4 3 1 -7 12 -22 25 -27 22 -28 36 -3 36 7 0 17 -11 23 -25 10
-22 18 -25 65 -25 48 0 55 3 65 25 10 22 15 24 32 15 19 -10 18 -40 -1 -40 -5
0 -9 -4 -9 -8 0 -5 37 -9 81 -9 55 0 76 3 65 9 -23 13 -21 31 2 19 11 -6 24
-6 33 0 12 7 12 9 -2 9 -9 0 -24 9 -35 21 -31 34 -96 67 -144 74 l-45 7 50
-25 50 -25 -55 5 c-75 6 -120 21 -114 37 3 9 -6 16 -27 20 -40 8 -41 8 -59 -4z"/>
<path d="M4660 5085 c0 -8 2 -15 4 -15 2 0 6 7 10 15 3 8 1 15 -4 15 -6 0 -10
-7 -10 -15z"/>
<path d="M4491 4914 c0 -11 3 -14 6 -6 3 7 2 16 -1 19 -3 4 -6 -2 -5 -13z"/>
<path d="M3355 4890 c-18 -19 -17 -20 1 -20 20 0 44 17 44 32 0 15 -27 8 -45
-12z"/>
<path d="M3256 4798 c-32 -45 -12 -117 40 -147 20 -12 32 -26 29 -31 -3 -6 1
-10 10 -10 9 0 13 -4 10 -10 -9 -15 4 -12 21 4 21 22 18 31 -27 60 -46 31 -69
76 -62 124 6 38 0 40 -21 10z"/>
<path d="M4502 4780 c0 -14 2 -19 5 -12 2 6 2 18 0 25 -3 6 -5 1 -5 -13z"/>
<path d="M3320 4720 c-13 -9 -11 -13 10 -30 14 -11 31 -20 37 -20 7 0 19 -15
26 -32 17 -41 52 -74 62 -59 8 14 48 14 61 1 13 -13 54 -1 54 16 0 8 4 14 9
14 6 0 31 14 57 31 50 34 122 46 116 20 -2 -9 3 -11 13 -7 9 3 19 6 21 6 2 0
-3 11 -12 25 -28 42 -89 28 -148 -34 -24 -25 -38 -31 -72 -31 -36 0 -49 7
-103 55 -62 56 -97 67 -131 45z"/>
<path d="M7179 4638 c0 -16 0 -210 0 -220 1 -5 8 -8 16 -8 13 0 15 20 15 120
0 100 -2 120 -15 120 -8 0 -15 -6 -16 -12z"/>
<path d="M7264 4635 c-4 -9 -2 -21 4 -27 15 -15 44 -1 40 19 -4 23 -36 29 -44
8z"/>
<path d="M7544 4635 c-4 -9 -2 -21 4 -27 15 -15 44 -1 40 19 -4 23 -36 29 -44
8z"/>
<path d="M6130 4627 c-48 -24 -39 -84 17 -113 24 -13 38 -27 38 -39 0 -17 -7
-20 -47 -18 -55 1 -67 -20 -21 -38 40 -15 90 -3 109 26 24 37 11 70 -39 97
-54 30 -56 53 -4 53 28 0 37 4 37 16 0 29 -47 38 -90 16z"/>
<path d="M6280 4600 c0 -11 -4 -20 -10 -20 -5 0 -10 -9 -10 -20 0 -11 5 -20
10 -20 6 0 10 -22 10 -49 0 -55 19 -84 54 -79 28 4 33 34 6 41 -16 4 -20 13
-20 46 0 34 3 41 20 41 13 0 20 7 20 20 0 13 -7 20 -20 20 -13 0 -20 7 -20 20
0 13 -7 20 -20 20 -13 0 -20 -7 -20 -20z"/>
<path d="M3370 4580 c0 -5 5 -10 11 -10 5 0 7 5 4 10 -3 6 -8 10 -11 10 -2 0
-4 -4 -4 -10z"/>
<path d="M6397 4573 c-2 -5 -3 -42 -3 -83 1 -63 4 -75 19 -78 14 -3 17 4 17
50 0 56 12 78 42 78 11 0 18 7 18 20 0 22 -12 25 -41 10 -13 -7 -19 -7 -19 0
0 11 -27 14 -33 3z"/>
<path d="M6545 4557 c-29 -25 -36 -77 -16 -115 20 -38 131 -41 131 -3 0 14 -9
17 -47 17 -28 -1 -48 4 -50 12 -3 8 10 12 46 12 52 0 55 3 52 45 -3 26 -37 55
-67 55 -12 0 -35 -10 -49 -23z m79 -32 c4 -12 -3 -15 -29 -15 -33 0 -43 8 -28
23 12 13 51 7 57 -8z"/>
<path d="M6722 4569 c-37 -14 -21 -34 25 -31 29 3 42 -1 46 -12 5 -12 0 -16
-18 -16 -49 0 -75 -17 -75 -50 0 -39 36 -59 75 -42 15 7 25 8 25 2 0 -6 7 -10
15 -10 12 0 15 15 15 75 0 72 -1 76 -26 85 -31 12 -51 12 -82 -1z m78 -99 c0
-12 -45 -24 -60 -15 -5 3 -8 11 -5 16 8 12 65 12 65 -1z"/>
<path d="M6888 4573 c-2 -5 -4 -42 -3 -83 0 -63 3 -75 18 -78 14 -3 17 4 17
50 0 56 12 78 41 78 22 0 29 -20 29 -81 0 -42 3 -49 20 -49 16 0 19 8 22 63 3
59 4 62 28 62 24 0 25 -3 28 -62 3 -55 6 -63 22 -63 18 0 20 7 20 68 0 57 -4
72 -20 87 -18 16 -25 17 -55 6 -26 -9 -39 -9 -56 0 -16 8 -28 8 -47 -1 -19 -8
-28 -8 -30 -1 -4 12 -29 15 -34 4z"/>
<path d="M7269 4573 c-4 -25 -5 -140 -1 -150 2 -7 10 -13 18 -13 11 0 14 19
14 85 0 69 -3 85 -15 85 -8 0 -16 -3 -16 -7z"/>
<path d="M7359 4570 c0 -5 -1 -39 -1 -75 0 -87 0 -85 17 -85 10 0 15 15 17 56
3 60 20 83 52 71 12 -5 16 -20 16 -67 0 -53 2 -60 20 -60 18 0 20 7 20 65 0
52 -4 69 -20 85 -23 23 -29 24 -64 10 -17 -6 -26 -6 -26 0 0 13 -30 13 -31 0z"/>
<path d="M7549 4568 c-1 -13 0 -135 1 -150 0 -5 7 -8 15 -8 12 0 15 16 15 85
0 69 -3 85 -15 85 -8 0 -15 -6 -16 -12z"/>
<path d="M7638 4568 c-3 -11 -3 -107 1 -145 0 -7 8 -13 16 -13 10 0 15 15 17
56 3 60 20 83 52 71 12 -5 16 -20 16 -67 0 -53 2 -60 20 -60 18 0 20 7 20 70
0 63 -2 71 -25 86 -22 14 -30 15 -53 5 -18 -9 -28 -9 -30 -2 -5 15 -29 14 -34
-1z"/>
<path d="M7842 4564 c-17 -12 -22 -25 -21 -52 1 -20 -1 -61 -5 -90 -5 -50 -4
-53 22 -63 35 -14 93 -4 109 18 28 37 9 64 -51 70 -28 4 -46 11 -46 18 0 8 8
11 18 8 33 -8 72 14 72 42 0 14 5 25 10 25 6 0 10 9 10 20 0 17 -7 20 -48 20
-27 0 -57 -7 -70 -16z m63 -39 c0 -22 -31 -33 -47 -17 -17 17 -1 44 24 40 15
-2 23 -10 23 -23z m13 -127 c-7 -20 -68 -23 -68 -4 0 12 10 16 36 16 24 0 34
-4 32 -12z"/>
<path d="M2808 4464 c-11 -10 3 -86 23 -122 10 -20 19 -40 19 -45 0 -4 5 -13
10 -20 62 -72 80 -90 80 -79 0 6 -5 12 -12 12 -6 0 -9 3 -5 6 3 4 -5 21 -18
38 -30 40 -75 140 -80 179 -4 32 -9 40 -17 31z"/>
<path d="M3355 4430 c-3 -5 -26 -10 -51 -10 -25 0 -54 -4 -64 -10 -13 -7 -21
-6 -30 5 -16 20 -74 19 -90 0 -15 -18 -1 -32 68 -65 24 -12 54 -31 65 -43 27
-27 69 -38 48 -13 -11 14 -11 16 3 16 9 0 29 14 45 30 l28 30 176 4 c126 3
194 1 242 -9 58 -13 71 -12 96 0 15 8 36 14 46 13 44 -3 67 2 56 13 -12 12
-266 18 -403 10 -71 -4 -133 6 -124 20 3 5 -4 9 -15 9 -12 0 -21 -4 -21 -10 0
-15 -26 -12 -40 5 -14 17 -26 19 -35 5z"/>
<path d="M3390 4321 c0 -19 17 -38 25 -29 7 7 -7 48 -16 48 -5 0 -9 -9 -9 -19z"/>
<path d="M3330 4271 c0 -5 9 -12 20 -15 11 -3 29 -9 40 -12 33 -9 23 13 -11
25 -39 13 -49 14 -49 2z"/>
<path d="M3568 4233 c6 -2 18 -2 25 0 6 3 1 5 -13 5 -14 0 -19 -2 -12 -5z"/>
<path d="M6110 4045 l0 -115 60 0 c53 0 60 2 60 20 0 17 -7 20 -40 20 l-40 0
0 95 c0 88 -1 95 -20 95 -19 0 -20 -7 -20 -115z"/>
<path d="M7070 4044 c0 -105 2 -115 18 -112 14 3 17 17 20 93 l4 90 32 -90
c24 -68 37 -91 52 -93 16 -2 24 12 49 84 16 47 33 88 37 90 5 3 8 -36 8 -85 0
-85 1 -91 20 -91 20 0 21 5 18 113 l-3 112 -26 3 c-31 4 -39 -6 -69 -83 -13
-33 -26 -63 -30 -68 -3 -4 -17 23 -30 60 -29 84 -35 93 -71 93 l-29 0 0 -116z"/>
<path d="M6440 4120 c0 -11 -4 -20 -10 -20 -5 0 -10 -9 -10 -20 0 -11 5 -20
10 -20 6 0 10 -22 10 -49 0 -55 19 -84 54 -79 28 4 33 34 6 41 -16 4 -20 13
-20 46 0 34 3 41 20 41 13 0 20 7 20 20 0 13 -7 20 -20 20 -13 0 -20 7 -20 20
0 13 -7 20 -20 20 -13 0 -20 -7 -20 -20z"/>
<path d="M6560 4120 c0 -11 -4 -20 -10 -20 -5 0 -10 -9 -10 -20 0 -11 5 -20
10 -20 6 0 10 -22 10 -49 0 -55 19 -84 54 -79 28 4 33 34 6 41 -16 4 -20 13
-20 46 0 34 3 41 20 41 13 0 20 7 20 20 0 13 -7 20 -20 20 -13 0 -20 7 -20 20
0 13 -7 20 -20 20 -13 0 -20 -7 -20 -20z"/>
<path d="M8950 4120 c0 -11 -4 -20 -10 -20 -5 0 -10 -9 -10 -20 0 -11 5 -20
10 -20 6 0 10 -22 10 -49 0 -55 19 -84 54 -79 28 4 33 34 6 41 -16 4 -20 13
-20 46 0 34 3 41 20 41 13 0 20 7 20 20 0 13 -7 20 -20 20 -13 0 -20 7 -20 20
0 13 -7 20 -20 20 -13 0 -20 -7 -20 -20z"/>
<path d="M6283 4088 c-35 -17 -47 -83 -24 -127 14 -25 74 -38 107 -22 40 18
29 36 -23 36 -28 0 -48 5 -50 13 -3 8 10 12 46 12 34 0 51 4 52 13 7 69 -46
105 -108 75z m71 -43 c4 -12 -3 -15 -29 -15 -33 0 -43 8 -28 23 12 13 51 7 57
-8z"/>
<path d="M6695 4077 c-29 -25 -36 -77 -16 -115 20 -38 131 -41 131 -4 0 14
-10 17 -47 17 -28 0 -48 5 -50 13 -3 8 10 12 46 12 l51 0 0 34 c0 62 -65 86
-115 43z m79 -32 c4 -12 -3 -15 -29 -15 -33 0 -43 8 -28 23 12 13 51 7 57 -8z"/>
<path d="M6857 4083 c-2 -10 -4 -47 -3 -83 1 -53 4 -65 19 -68 14 -3 17 4 17
50 0 56 12 78 42 78 11 0 18 7 18 20 0 22 -12 25 -41 10 -13 -7 -19 -7 -19 0
0 17 -28 11 -33 -7z"/>
<path d="M7402 4089 c-37 -14 -21 -34 25 -31 29 3 42 -1 46 -12 5 -12 0 -16
-18 -16 -35 0 -71 -16 -79 -35 -15 -40 41 -78 83 -55 14 7 21 7 21 0 0 -5 7
-10 15 -10 12 0 15 15 15 75 0 72 -1 76 -26 85 -31 12 -51 12 -82 -1z m69
-104 c0 -5 -7 -12 -16 -13 -23 -5 -47 6 -40 19 8 13 56 8 56 -6z"/>
<path d="M7559 4093 c-3 -28 -4 -140 -1 -150 2 -7 10 -13 18 -13 9 0 14 17 16
56 3 60 20 83 52 71 12 -5 16 -20 16 -67 0 -53 2 -60 20 -60 18 0 20 7 20 70
0 63 -2 71 -25 86 -22 14 -30 15 -53 5 -18 -9 -28 -9 -30 -2 -4 12 -31 15 -33
4z"/>
<path d="M7772 4089 c-37 -14 -21 -34 25 -31 28 2 42 -1 46 -11 4 -11 -5 -16
-36 -20 -23 -3 -47 -13 -53 -22 -29 -40 23 -89 71 -67 15 7 25 8 25 2 0 -6 7
-10 15 -10 12 0 15 15 15 75 0 72 -1 76 -26 85 -31 12 -51 12 -82 -1z m76
-101 c-5 -15 -33 -22 -54 -14 -24 9 -6 26 27 26 20 0 29 -4 27 -12z"/>
<path d="M7951 4084 c-18 -13 -22 -23 -18 -48 2 -17 1 -38 -3 -47 -5 -8 -5
-21 0 -29 5 -7 4 -21 -2 -30 -16 -25 -3 -47 31 -55 47 -10 91 3 104 32 10 22
8 28 -12 44 -13 11 -38 19 -57 19 -23 0 -34 5 -34 14 0 9 7 12 18 9 33 -8 72
14 72 42 0 14 5 25 10 25 6 0 10 9 10 20 0 17 -7 20 -48 20 -28 0 -57 -7 -71
-16z m64 -39 c0 -22 -31 -33 -47 -17 -17 17 -1 44 24 40 15 -2 23 -10 23 -23z
m13 -127 c-7 -20 -68 -23 -68 -4 0 12 10 16 36 16 24 0 34 -4 32 -12z"/>
<path d="M8123 4088 c-35 -17 -47 -83 -24 -127 14 -25 74 -38 107 -22 40 18
29 36 -23 36 -28 0 -48 5 -50 13 -3 8 10 12 46 12 34 0 51 4 52 13 7 69 -46
105 -108 75z m71 -43 c4 -12 -3 -15 -29 -15 -33 0 -43 8 -28 23 12 13 51 7 57
-8z"/>
<path d="M8279 4093 c-3 -28 -4 -140 -1 -150 2 -7 10 -13 18 -13 10 0 14 14
14 53 0 55 12 77 41 77 22 0 29 -20 29 -81 0 -42 3 -49 20 -49 16 0 19 8 22
63 3 59 4 62 28 62 24 0 25 -3 28 -62 3 -55 6 -63 22 -63 18 0 20 7 20 68 0
57 -4 72 -20 87 -18 16 -25 17 -54 7 -26 -10 -40 -10 -60 -1 -20 9 -32 9 -51
1 -15 -7 -25 -8 -25 -2 0 12 -30 14 -31 3z"/>
<path d="M8603 4088 c-35 -17 -47 -83 -24 -127 20 -37 131 -40 131 -3 0 14
-10 17 -47 17 -28 0 -48 5 -50 13 -3 8 10 12 46 12 34 0 51 4 52 13 7 69 -46
105 -108 75z m71 -43 c4 -12 -3 -15 -29 -15 -33 0 -43 8 -28 23 12 13 51 7 57
-8z"/>
<path d="M8759 4093 c-3 -28 -4 -140 -1 -150 2 -7 10 -13 18 -13 9 0 14 17 16
56 3 60 20 83 52 71 12 -5 16 -20 16 -67 0 -53 2 -60 20 -60 18 0 20 7 20 65
0 52 -4 69 -20 85 -23 23 -29 24 -64 10 -17 -6 -26 -6 -26 0 0 12 -30 14 -31
3z"/>
<path d="M4371 4034 c0 -11 3 -14 6 -6 3 7 2 16 -1 19 -3 4 -6 -2 -5 -13z"/>
<path d="M3440 3791 c0 -5 7 -11 15 -15 8 -3 15 -1 15 3 0 5 -7 11 -15 15 -8
3 -15 1 -15 -3z"/>
<path d="M3485 3730 c3 -5 16 -10 28 -9 21 0 21 1 2 9 -28 12 -37 12 -30 0z"/>
<path d="M3578 3733 c7 -3 16 -2 19 1 4 3 -2 6 -13 5 -11 0 -14 -3 -6 -6z"/>
<path d="M6104 3675 c-4 -9 -2 -21 4 -27 15 -15 44 -1 40 19 -4 23 -36 29 -44
8z"/>
<path d="M6598 3678 c-3 -11 -2 -196 1 -220 1 -5 8 -8 16 -8 10 0 15 15 17 56
3 60 20 83 52 71 12 -5 16 -20 16 -67 0 -53 2 -60 20 -60 18 0 20 7 20 65 0
53 -4 69 -21 86 -20 20 -32 21 -71 4 -16 -6 -18 -1 -18 39 0 33 -4 46 -14 46
-8 0 -16 -6 -18 -12z"/>
<path d="M7091 3666 c-34 -19 -50 -54 -51 -107 0 -57 27 -96 73 -104 44 -9 87
9 87 35 0 17 -3 19 -19 10 -53 -28 -101 3 -101 65 0 62 48 93 101 65 16 -9 19
-7 19 10 0 35 -64 51 -109 26z"/>
<path d="M7240 3564 c0 -105 2 -115 18 -112 14 3 17 17 20 93 l4 90 32 -90
c24 -68 37 -91 52 -93 16 -2 24 12 49 84 16 47 33 88 37 90 5 3 8 -36 8 -85 0
-85 1 -91 20 -91 20 0 21 5 18 113 l-3 112 -26 3 c-32 4 -41 -7 -69 -86 -13
-34 -26 -65 -31 -67 -4 -3 -17 25 -29 62 -28 84 -35 93 -71 93 l-29 0 0 -116z"/>
<path d="M7603 3665 c-40 -17 -53 -42 -53 -99 0 -62 16 -93 57 -107 98 -32
171 46 143 151 -9 33 -18 44 -45 56 -42 17 -61 17 -102 -1z m97 -44 c15 -30
12 -92 -7 -113 -39 -43 -103 -8 -103 57 0 46 25 75 65 75 24 0 38 -6 45 -19z"/>
<path d="M7986 3572 c-20 -59 -36 -110 -36 -115 0 -4 9 -7 19 -7 12 0 21 9 25
25 6 22 11 25 55 25 44 0 50 -3 53 -22 2 -15 11 -24 26 -26 12 -2 22 0 22 5 0
4 -17 56 -37 116 -35 100 -40 107 -65 107 -25 0 -29 -7 -62 -108z m88 -9 c7
-21 4 -23 -27 -23 l-35 0 16 51 17 51 11 -28 c6 -16 15 -39 18 -51z"/>
<path d="M6470 3640 c0 -11 -4 -20 -10 -20 -5 0 -10 -9 -10 -20 0 -11 5 -20
10 -20 6 0 10 -22 10 -49 0 -55 19 -84 54 -79 28 4 33 34 6 41 -16 4 -20 13
-20 46 0 34 3 41 20 41 13 0 20 7 20 20 0 13 -7 20 -20 20 -13 0 -20 7 -20 20
0 13 -7 20 -20 20 -13 0 -20 -7 -20 -20z"/>
<path d="M6109 3610 c0 -5 -1 -43 -1 -82 -1 -60 2 -74 15 -76 15 -3 17 8 17
82 0 70 -3 86 -15 86 -8 0 -15 -4 -16 -10z"/>
<path d="M6199 3613 c-3 -28 -4 -140 -1 -150 2 -7 10 -13 18 -13 9 0 14 17 16
56 3 60 20 83 52 71 12 -5 16 -20 16 -67 0 -53 2 -60 20 -60 18 0 20 7 20 65
0 52 -4 69 -20 85 -23 23 -33 24 -63 9 -16 -9 -22 -9 -25 0 -4 12 -31 15 -33
4z"/>
<path d="M6806 3599 c-20 -16 -26 -29 -26 -60 0 -22 4 -49 10 -59 19 -36 130
-38 130 -2 0 14 -10 17 -47 17 -28 0 -48 5 -50 13 -3 8 10 12 46 12 l51 0 0
34 c0 61 -63 85 -114 45z m78 -34 c4 -12 -3 -15 -29 -15 -33 0 -43 8 -28 23
12 13 51 7 57 -8z"/>
<path d="M8203 3610 c-16 -7 -23 -18 -23 -38 0 -23 7 -32 35 -45 46 -22 46
-40 0 -35 -43 5 -56 -17 -19 -34 48 -22 112 21 88 60 -6 9 -21 22 -33 28 -13
7 -28 17 -34 24 -9 10 -4 11 26 8 30 -3 37 -1 37 13 0 27 -35 36 -77 19z"/>
<path d="M8338 3609 c-10 -6 -18 -22 -18 -38 0 -21 7 -31 35 -44 45 -21 45
-39 1 -36 -43 4 -57 -8 -32 -27 27 -19 59 -18 86 4 30 24 21 69 -15 78 -13 3
-30 13 -37 21 -11 14 -8 15 25 11 30 -3 37 -1 37 13 0 28 -48 38 -82 18z"/>
<path d="M8482 3609 c-37 -14 -21 -34 25 -31 29 3 42 -1 46 -12 5 -12 0 -16
-18 -16 -35 0 -71 -16 -79 -35 -15 -40 41 -78 83 -55 14 7 21 7 21 0 0 -5 7
-10 15 -10 12 0 15 15 15 75 0 72 -1 76 -26 85 -31 12 -51 12 -82 -1z m78 -99
c0 -12 -45 -24 -60 -15 -5 3 -8 11 -5 16 8 12 65 12 65 -1z"/>
<path d="M8648 3613 c-2 -5 -4 -42 -3 -83 0 -63 3 -75 18 -78 14 -3 17 4 17
50 0 56 12 78 41 78 22 0 29 -20 29 -81 0 -42 3 -49 20 -49 18 0 20 7 20 59 0
51 3 61 20 66 32 10 40 -3 40 -66 0 -52 2 -59 20 -59 18 0 20 7 20 64 0 48 -5
70 -19 87 -18 22 -21 23 -55 11 -27 -10 -40 -10 -57 -1 -16 8 -28 8 -47 -1
-19 -8 -28 -8 -30 -1 -4 12 -29 15 -34 4z"/>
<path d="M4157 3574 c-26 -20 -47 -39 -47 -41 0 -8 62 32 82 55 31 32 18 27
-35 -14z"/>
<path d="M3390 3586 c0 -9 5 -16 10 -16 6 0 10 4 10 9 0 6 -4 13 -10 16 -5 3
-10 -1 -10 -9z"/>
<path d="M3258 3563 c7 -3 16 -2 19 1 4 3 -2 6 -13 5 -11 0 -14 -3 -6 -6z"/>
<path d="M7790 3474 c0 -14 -5 -34 -11 -46 -17 -32 1 -36 27 -5 30 35 32 77 4
77 -15 0 -20 -7 -20 -26z"/>
<path d="M2640 3454 c-30 -19 -54 -41 -52 -48 1 -7 -12 -17 -30 -23 l-33 -9
33 -18 c18 -9 30 -21 27 -26 -3 -6 1 -7 9 -4 9 3 29 27 45 52 17 26 42 62 57
80 35 42 14 41 -56 -4z"/>
<path d="M3827 3423 c-40 -31 -47 -44 -18 -36 22 6 67 50 59 58 -2 3 -21 -7
-41 -22z"/>
<path d="M3430 3380 c0 -5 5 -10 10 -10 6 0 10 5 10 10 0 6 -4 10 -10 10 -5 0
-10 -4 -10 -10z"/>
<path d="M7933 3225 c-141 -45 -254 -179 -306 -363 -20 -73 -21 -102 -24 -540
-3 -461 -3 -463 -25 -495 -12 -18 -97 -135 -188 -262 -92 -126 -176 -246 -188
-266 -35 -58 -62 -148 -61 -203 l1 -51 13 62 c17 79 43 136 96 215 82 122 352
493 366 505 9 7 27 10 42 7 14 -3 215 -25 446 -48 376 -39 422 -42 444 -29 30
19 44 43 -170 -288 -194 -299 -258 -380 -361 -462 -208 -164 -454 -236 -658
-193 -36 8 -67 12 -68 11 -12 -11 59 -39 130 -51 228 -41 509 66 705 269 71
73 166 211 433 634 36 56 69 102 73 102 5 1 7 -400 5 -889 l-3 -890 117 0 116
0 4 258 c3 141 6 478 6 747 2 443 10 855 18 855 2 0 121 20 266 44 145 24 356
58 469 76 l206 32 6 187 c9 232 9 609 1 638 -4 13 -10 20 -15 17 -5 -3 -13 5
-18 18 l-10 23 -1 -25 c-1 -23 -2 -23 -10 -5 -8 19 -9 19 -9 1 -1 -14 -4 -16
-15 -7 -9 8 -21 8 -39 2 -14 -5 -89 -11 -168 -12 -86 -1 -150 -6 -158 -13 -23
-18 -461 -12 -461 7 0 4 -6 7 -14 7 -10 0 -16 13 -19 38 -2 20 -4 -29 -5 -110
-2 -139 -1 -147 18 -153 31 -10 54 -63 54 -125 -1 -85 -32 -130 -90 -130 -89
0 -106 38 -98 217 6 126 -5 389 -14 336 -2 -13 -8 -23 -13 -23 -5 0 -9 -7 -9
-16 0 -34 -32 -6 -53 46 -26 63 -92 164 -132 200 -18 16 -9 -1 23 -45 60 -82
102 -186 107 -264 3 -39 2 -50 -5 -36 -5 11 -9 16 -9 10 -1 -5 -6 -3 -11 5 -7
11 -10 12 -10 2 0 -8 -10 -13 -22 -12 -13 1 -39 2 -59 1 l-36 -1 -1 -126 c0
-70 -3 -129 -6 -132 -4 -3 -6 44 -6 104 0 259 -111 474 -289 560 -31 15 -64
31 -73 36 -27 12 -188 8 -235 -7z m-32 -205 c22 0 38 -4 37 -9 -2 -6 38 -52
88 -103 100 -103 214 -251 214 -280 0 -10 4 -18 9 -18 5 0 16 -17 24 -38 8
-21 22 -44 31 -51 9 -8 16 -21 16 -30 0 -9 9 -34 21 -55 11 -22 22 -46 24 -55
2 -9 11 -33 20 -55 9 -21 14 -41 10 -44 -3 -3 7 -18 22 -34 15 -15 22 -28 16
-28 -6 0 -37 28 -68 63 -59 64 -60 63 -14 -12 27 -42 28 -47 22 -140 -5 -83
-3 -99 11 -114 16 -16 16 -17 -1 -18 -17 0 -17 -1 0 -7 10 -5 -70 -21 -193
-40 -115 -18 -216 -35 -223 -38 -11 -4 -19 33 -36 163 -18 132 -94 689 -126
917 l-6 39 32 -7 c17 -3 49 -6 70 -6z m273 -1124 c21 -4 46 -11 56 -16 10 -6
29 -10 41 -10 12 0 20 -3 16 -6 -6 -7 -287 13 -327 23 -69 17 116 25 214 9z
m426 -57 c0 -22 -11 -24 -28 -7 -17 17 -15 24 8 25 14 1 20 -4 20 -18z"/>
<path d="M3390 3045 c0 -26 28 -90 36 -83 5 5 -25 108 -31 108 -3 0 -5 -11 -5
-25z"/>
<path d="M3492 2874 c-13 -23 -3 -56 15 -50 8 3 20 6 26 6 7 0 21 7 31 15 20
15 20 15 0 30 -26 19 -61 19 -72 -1z"/>
<path d="M3611 2814 c-1 -7 -10 -14 -21 -17 -11 -3 -20 -12 -20 -21 0 -20 -14
-20 -34 0 -9 8 -16 11 -16 5 0 -13 54 -51 73 -51 28 0 41 28 29 63 -5 17 -10
27 -11 21z"/>
<path d="M1010 2537 c0 -2 14 -16 32 -33 l31 -29 -22 33 c-18 26 -41 42 -41
29z"/>
<path d="M3438 1993 c6 -2 12 -13 12 -23 0 -10 9 -20 20 -23 13 -3 20 0 20 8
0 7 6 16 13 18 20 9 -14 27 -48 26 -16 0 -24 -3 -17 -6z"/>
<path d="M3527 1961 c3 -10 0 -22 -6 -25 -6 -4 -11 -15 -11 -24 0 -10 -12 -25
-27 -34 -16 -10 -23 -18 -18 -18 6 0 25 9 43 20 26 16 32 26 32 54 0 19 -4 37
-9 40 -5 4 -7 -2 -4 -13z"/>
<path d="M3379 1966 c-1 0 -3 -13 -4 -28 -2 -16 4 -33 16 -44 18 -16 19 -16
19 9 0 14 5 29 10 32 17 11 11 22 -15 27 -14 3 -26 5 -26 4z"/>
<path d="M3249 1883 c-1 -16 -2 -48 -3 -73 -1 -25 1 -61 5 -80 4 -22 7 4 8 73
0 59 -1 107 -4 107 -3 0 -5 -12 -6 -27z"/>
<path d="M1378 1820 c18 -16 39 -47 47 -67 19 -45 67 -257 91 -398 9 -55 19
-102 21 -105 10 -10 -8 137 -33 265 -42 220 -51 245 -97 293 -23 23 -45 42
-51 42 -5 0 5 -13 22 -30z"/>
<path d="M3240 1369 c0 -5 5 -7 10 -4 6 3 10 8 10 11 0 2 -4 4 -10 4 -5 0 -10
-5 -10 -11z"/>
<path d="M1547 1165 c3 -44 9 -163 13 -265 l8 -185 -4 230 c-2 127 -8 246 -14
265 -7 27 -8 17 -3 -45z"/>
<path d="M3393 1030 c-38 -22 -53 -48 -53 -87 0 -37 16 -53 55 -53 60 0 120
94 88 139 -18 26 -49 27 -90 1z m-3 -50 c0 -7 6 -7 19 0 30 16 49 12 56 -11 5
-14 0 -27 -14 -40 -25 -24 -36 -24 -53 -1 -7 10 -21 21 -30 25 -11 4 -15 12
-12 22 7 17 34 21 34 5z"/>
<path d="M5231 825 c3 -124 3 -125 26 -125 13 0 40 8 61 19 52 26 131 39 241
40 92 0 112 4 97 19 -13 13 -258 4 -311 -11 -27 -8 -57 -16 -65 -18 -12 -3
-15 11 -18 76 -2 94 -8 125 -23 125 -7 0 -10 -42 -8 -125z"/>
<path d="M6244 501 c7 -11 46 -35 46 -28 0 3 -12 12 -26 22 -15 9 -23 12 -20
6z"/>
<path d="M1330 448 c1 -7 23 -23 49 -36 27 -12 65 -34 85 -47 44 -30 56 -31
56 -6 0 28 -46 79 -78 85 -88 17 -112 18 -112 4z"/>
<path d="M6300 456 c0 -2 7 -9 15 -16 9 -7 15 -8 15 -2 0 5 -7 12 -15 16 -8 3
-15 4 -15 2z"/>
<path d="M3110 439 c-25 -5 -54 -10 -65 -13 -11 -2 -23 -5 -27 -5 -3 -1 -16
-21 -28 -46 -12 -25 -26 -47 -31 -51 -5 -3 -16 -19 -25 -35 l-15 -30 38 24
c71 46 146 57 219 32 18 -6 25 1 48 49 15 31 32 59 38 63 32 19 -70 28 -152
12z"/>
<path d="M3455 420 c10 -11 20 -18 23 -15 7 6 -18 35 -31 35 -5 0 -2 -9 8 -20z"/>
<path d="M1083 413 c9 -2 23 -2 30 0 6 3 -1 5 -18 5 -16 0 -22 -2 -12 -5z"/>
<path d="M1175 391 l30 -21 -45 0 c-33 0 -41 -3 -30 -10 8 -5 35 -10 59 -10
24 0 61 -5 83 -12 28 -8 42 -8 50 0 8 8 -2 14 -33 22 -24 7 -55 18 -69 25 -14
7 -36 16 -50 19 -23 7 -23 6 5 -13z"/>
<path d="M729 381 c-111 -43 -209 -114 -209 -151 0 -19 15 -28 22 -12 7 19
111 91 187 131 44 23 81 44 81 47 0 9 -37 2 -81 -15z"/>
<path d="M934 364 c-18 -15 -18 -15 11 -9 17 3 48 10 70 14 l40 8 -51 2 c-32
1 -57 -5 -70 -15z"/>
<path d="M3490 372 c0 -7 6 -28 14 -47 22 -51 48 -190 50 -262 1 -62 1 -63 29
-63 22 0 27 4 23 18 -3 9 -10 40 -17 67 -34 148 -99 335 -99 287z"/>
<path d="M1548 333 c7 -3 16 -2 19 1 4 3 -2 6 -13 5 -11 0 -14 -3 -6 -6z"/>
<path d="M3094 289 c-17 -7 -16 -8 6 -8 14 -1 36 -4 49 -8 16 -4 22 -2 18 4
-9 15 -49 21 -73 12z"/>
<path d="M3018 283 c6 -2 18 -2 25 0 6 3 1 5 -13 5 -14 0 -19 -2 -12 -5z"/>
<path d="M3180 264 c0 -3 11 -15 25 -26 31 -24 65 -89 64 -120 0 -14 -3 -17
-6 -8 -46 135 -154 181 -265 112 -34 -21 -78 -86 -78 -116 0 -14 3 -14 34 1
32 15 37 15 60 -1 30 -19 35 -60 9 -88 -15 -17 -15 -18 10 -18 17 0 27 5 27
14 0 8 5 18 11 22 8 4 9 0 4 -15 -6 -20 -4 -21 83 -21 96 0 102 3 102 56 0 14
4 22 10 19 16 -10 12 61 -6 103 -21 50 -84 115 -84 86z m-66 -49 c30 -30 30
-57 1 -83 -44 -37 -105 -15 -105 39 0 49 69 78 104 44z m110 -94 c23 -26 17
-60 -15 -83 -25 -19 -28 -19 -58 -4 -24 13 -31 23 -31 46 0 52 69 80 104 41z"/>
<path d="M2865 209 c-4 -6 -5 -12 -2 -15 2 -3 7 2 10 11 7 17 1 20 -8 4z"/>
<path d="M2835 156 c-26 -39 -55 -124 -49 -141 3 -8 16 -15 28 -15 19 0 21 5
22 68 0 37 6 77 13 90 16 30 6 28 -14 -2z"/>
<path d="M1944 156 c-4 -10 -10 -32 -13 -50 -6 -26 -12 -31 -41 -34 -19 -2
-42 -9 -51 -16 -24 -17 -147 -12 -166 7 -12 12 -22 12 -49 4 -28 -8 -37 -7
-52 6 -23 21 -46 22 -38 2 7 -20 -41 -40 -59 -25 -9 8 -15 8 -20 0 -11 -17
-25 -11 -25 11 0 27 -20 14 -21 -14 0 -21 -1 -21 -11 3 -10 23 -11 24 -17 5
-9 -30 -43 -25 -62 10 -27 49 -45 44 -44 -15 l0 -50 42 0 c24 0 43 5 46 13 4
10 6 10 6 0 1 -10 67 -13 294 -13 l292 0 23 34 c21 31 22 66 0 66 -5 0 -7 8
-4 18 4 10 0 27 -8 38 -14 18 -15 18 -22 0z"/>
<path d="M1620 140 c0 -5 5 -10 11 -10 5 0 7 5 4 10 -3 6 -8 10 -11 10 -2 0
-4 -4 -4 -10z"/>
<path d="M1590 110 c0 -11 2 -20 4 -20 2 0 6 9 9 20 3 11 1 20 -4 20 -5 0 -9
-9 -9 -20z"/>
<path d="M3301 58 c1 -62 1 -62 14 -33 16 33 18 55 9 79 -13 35 -24 13 -23
-46z"/>
<path d="M2017 39 c4 -13 9 -17 15 -11 11 11 3 32 -12 32 -4 0 -6 -9 -3 -21z"/>
<path d="M2920 10 c0 -5 7 -10 16 -10 8 0 12 5 9 10 -3 6 -10 10 -16 10 -5 0
-9 -4 -9 -10z"/>
</g>
</svg>
